<?xml version="1.0" encoding="utf-8"?>
<!-- Generator: Adobe Illustrator 22.1.0, SVG Export Plug-In . SVG Version: 6.00 Build 0)  -->
<svg version="1.1" id="Layer_1" xmlns="http://www.w3.org/2000/svg" xmlns:xlink="http://www.w3.org/1999/xlink" x="0px" y="0px"
	 viewBox="0 0 299 83" style="enable-background:new 0 0 299 83;" xml:space="preserve">
<style type="text/css">
	.st0{fill:#FFFFFF;}
	.st1{filter:url(#Adobe_OpacityMaskFilter);}
	.st2{mask:url(#mask-2_1_);fill:#FFFFFF;}
	.st3{filter:url(#Adobe_OpacityMaskFilter_1_);}
	.st4{mask:url(#mask-2_2_);fill:#FFFFFF;}
	.st5{filter:url(#Adobe_OpacityMaskFilter_2_);}
	.st6{mask:url(#mask-4_1_);fill:#FFFFFF;}
</style>
<title>White</title>
<desc>Created with Sketch.</desc>
<g id="Homepage">
	<g id="Home-New-Logo-and-Find-a-course" transform="translate(-120.000000, -49.000000)">
		<g id="Header">
			<g id="Header-inner">
				<g id="White" transform="translate(120.000000, 49.000000)">
					<path id="Fill-1" class="st0" d="M190.6,59.2c-0.8-0.3-1.8-0.5-2.9-0.5c-2.5,0-5,0.8-6,1.3c-0.2,0.1-0.5,0.2-0.4,0.2
						c0,0-0.1,0-0.4-0.2c-1-0.4-3.5-1.3-6-1.3c-1.1,0-2,0.2-2.9,0.5V46.5c0.5-0.2,1.8-0.5,3.4-0.5c2.1,0,4.1,0.7,5.5,1.9l0.3,0.4
						l0.3-0.4c1.5-1.2,3.5-1.9,5.5-1.9c1.6,0,2.9,0.4,3.4,0.5V59.2z M166.4,44.2c-0.9,0-1.7-0.7-1.7-1.7s0.7-1.7,1.7-1.7
						c0.9,0,1.7,0.7,1.7,1.7S167.3,44.2,166.4,44.2L166.4,44.2z M200.8,56.5c-0.9-1.9-2.8-4.8-3.3-5.4l-0.1,0.2c0,0-0.9,3.8-1.1,5.3
						c0.2-0.1,0.6-0.3,0.9-0.5l0.3-0.2l0,0.2c0.1,2.5-0.4,4.8-1.4,6.6l0,0c-0.2,0-0.4,0.1-0.6,0.1l-3.3-2.4V48.3
						c0-0.2-0.1-0.3-0.2-0.4c-0.1-0.1-0.2-0.2-0.3-0.3l6.9-5.3c0.3-0.2,0.4-0.7,0.1-1c-0.1-0.1-0.2-0.2-0.3-0.3
						c-0.2-0.3-0.6-0.3-0.9-0.1l-6.7,5.1c-0.7-0.2-2.1-0.6-3.6-0.6c-1.9,0-3.5,0.5-5,1.4v-2c0.7,0,1.6-0.2,2.6-0.6
						c0.2-0.1,0.3-0.2,0.3-0.4l0-1.6c0-0.2-0.1-0.3-0.2-0.4c-0.4-0.2-1.2-0.6-2.7-0.7v-0.3c0-0.3-0.2-0.5-0.5-0.5H181
						c-0.3,0-0.5,0.2-0.5,0.5V41c-1.5,0.1-2.3,0.5-2.7,0.7c-0.1,0.1-0.2,0.2-0.2,0.4l0,1.6c0,0.2,0.1,0.3,0.3,0.4
						c1,0.4,1.9,0.5,2.6,0.6v2c-1.4-0.9-3.1-1.4-5-1.4c-1.3,0-2.5,0.3-3.3,0.5l-3-2.2c0.1-0.3,0.2-0.7,0.2-1.1c0-1.7-1.3-3-3-3
						s-3,1.3-3,3c0,1.7,1.3,3,3,3c0.6,0,1.2-0.2,1.6-0.5l3.2,2.3c-0.3,0.1-0.5,0.3-0.7,0.4c-0.1,0.1-0.2,0.3-0.2,0.4v11.9l-2.3,1.7
						c-0.4,0-0.7,0.1-1,0.3c-1.8-2.6-3.2-6-3.1-9.2c-1.5,3.4-0.2,7.4,1.6,10.5l-0.7,0.4c-0.1,0.1,0.1,0.4,0.3,0.8l0.3,0.4
						c0.3,0.4,0.6,0.7,0.6,0.6l0.7-0.5c2.4,2.6,5.8,4.9,9.5,4.5c-3.1-0.9-5.8-3.1-7.7-5.6c0.2-0.1,0.3-0.5,0.4-0.8l3.1-2.3
						c0.9-0.3,2-0.6,2.9-0.6c1.5,0,2.9,0.2,4,0.6c0,0,0,0,0,0l1.3,0.4c0,0,0,0,0,0.1v5.7c0,0.4,0.3,0.7,0.7,0.7h0.4
						c0.4,0,0.7-0.3,0.7-0.7v-5.7c0,0,0,0,0-0.1l1.3-0.4c0,0,0,0,0,0c1.1-0.4,2.5-0.6,4-0.6c0.8,0,1.6,0.2,2.4,0.4l4.3,3.2
						c0.1,0.3,0.1,0.5,0.2,0.8c-1.8,1.8-4,2.6-5.5,3l-0.2,0l0-0.2c0-0.3,0.1-0.5,0.1-0.8c0-0.2,0.1-0.4,0.1-0.6
						c-1.2,0.8-4.2,3-4.2,3l-0.2,0.2c0.8,0.2,4,0.5,6,0.6c-0.2-0.2-0.5-0.4-0.8-0.6l-0.2-0.2l0.3-0.1c1.5-0.4,3.7-1.3,5.5-2.9
						c0.9-0.2,2.3-0.8,2.3-0.8s0-1.1-0.1-2c1.2-2.1,1.8-4.6,1.6-7.6l0-0.2l0.2,0.1C199.7,56,200.4,56.3,200.8,56.5L200.8,56.5z"/>
					<path id="Fill-2" class="st0" d="M182.3,49c0,0.1,0,0.1,0,0.2l0,0c0,0.1,0.1,0.1,0.2,0.1c0,0,0.1,0,0.1,0
						c0.6-0.3,2.1-0.9,4-0.9c0.6,0,1.2,0.1,1.8,0.2l0,0h0c0.1,0,0.2-0.1,0.2-0.2l0,0c0-0.1,0-0.1,0-0.2c0-0.1-0.1-0.1-0.1-0.1
						c-0.6-0.1-1.3-0.2-1.9-0.2c-2,0-3.6,0.7-4.2,1C182.4,48.9,182.3,48.9,182.3,49"/>
					<path id="Fill-3" class="st0" d="M182.4,50.6c0,0.1,0.1,0.1,0.2,0.1c0,0,0.1,0,0.1,0c0.6-0.3,2.1-0.9,4-0.9
						c0.6,0,1.2,0.1,1.8,0.2l0,0h0c0.1,0,0.2-0.1,0.2-0.2l0,0c0-0.1,0-0.1,0-0.2c0-0.1-0.1-0.1-0.1-0.1c-0.6-0.1-1.3-0.2-1.9-0.2
						c-2,0-3.6,0.7-4.2,1c-0.1,0-0.1,0.1-0.1,0.1C182.3,50.5,182.3,50.6,182.4,50.6L182.4,50.6"/>
					<path id="Fill-4" class="st0" d="M188.5,50.9c-0.6-0.1-1.3-0.2-1.9-0.2c-2,0-3.6,0.7-4.2,1c-0.1,0-0.1,0.1-0.1,0.1
						c0,0.1,0,0.1,0,0.2l0,0c0,0.1,0.1,0.1,0.2,0.1c0,0,0.1,0,0.1,0c0.6-0.3,2.1-0.9,4-0.9c0.6,0,1.2,0.1,1.8,0.2l0,0h0
						c0.1,0,0.2-0.1,0.2-0.2l0,0c0-0.1,0-0.1,0-0.2C188.6,50.9,188.6,50.9,188.5,50.9"/>
					<path id="Fill-5" class="st0" d="M182.4,53.4c0,0.1,0.1,0.1,0.2,0.1c0,0,0.1,0,0.1,0c0.6-0.3,2.1-0.9,4-0.9
						c0.6,0,1.2,0.1,1.8,0.2l0,0h0c0.1,0,0.2-0.1,0.2-0.2l0,0c0-0.1,0-0.1,0-0.2c0-0.1-0.1-0.1-0.1-0.1c-0.6-0.1-1.3-0.2-1.9-0.2
						c-2,0-3.6,0.7-4.2,1c-0.1,0-0.1,0.1-0.1,0.1C182.3,53.3,182.3,53.4,182.4,53.4L182.4,53.4"/>
					<path id="Fill-6" class="st0" d="M188.5,53.7c-0.6-0.1-1.3-0.2-1.9-0.2c-2,0-3.6,0.7-4.2,1c-0.1,0-0.1,0.1-0.1,0.1
						c0,0.1,0,0.1,0,0.2l0,0c0,0.1,0.1,0.1,0.2,0.1c0,0,0.1,0,0.1,0c0.6-0.3,2.1-0.9,4-0.9c0.6,0,1.2,0.1,1.8,0.2l0,0h0
						c0.1,0,0.2-0.1,0.2-0.2l0,0c0-0.1,0-0.1,0-0.2C188.6,53.8,188.6,53.7,188.5,53.7"/>
					<path id="Fill-7" class="st0" d="M188.5,55.1c-0.6-0.1-1.3-0.2-1.9-0.2c-2,0-3.6,0.7-4.2,1c-0.1,0-0.1,0.1-0.1,0.1
						c0,0.1,0,0.1,0,0.2l0,0c0,0.1,0.1,0.1,0.2,0.1c0,0,0.1,0,0.1,0c0.6-0.3,2.1-0.9,4-0.9c0.6,0,1.2,0.1,1.8,0.2l0,0h0
						c0.1,0,0.2-0.1,0.2-0.2l0,0c0-0.1,0-0.1,0-0.2C188.6,55.2,188.6,55.1,188.5,55.1"/>
					<path id="Fill-8" class="st0" d="M188.5,56.5c-0.6-0.1-1.3-0.2-1.9-0.2c-2,0-3.6,0.7-4.2,1c-0.1,0-0.1,0.1-0.1,0.1
						c0,0.1,0,0.1,0,0.2c0,0.1,0.1,0.1,0.2,0.1c0,0,0.1,0,0.1,0c0.6-0.3,2.1-0.9,4-0.9c0.6,0,1.2,0.1,1.8,0.2l0,0h0
						c0.1,0,0.2-0.1,0.2-0.2l0,0c0-0.1,0-0.1,0-0.2C188.6,56.6,188.6,56.5,188.5,56.5"/>
					<path id="Fill-9" class="st0" d="M179.1,53.1c-0.6-0.3-2.2-1-4.2-1c-0.7,0-1.3,0.1-1.9,0.2c-0.1,0-0.1,0-0.1,0.1
						c0,0.1,0,0.1,0,0.2l0,0c0,0.1,0.1,0.2,0.2,0.2l0,0l0,0c0.6-0.1,1.2-0.2,1.8-0.2c1.9,0,3.4,0.6,4,0.9c0,0,0.1,0,0.1,0
						c0.1,0,0.2,0,0.2-0.1l0,0c0-0.1,0-0.1,0-0.2C179.2,53.2,179.1,53.1,179.1,53.1"/>
					<path id="Fill-10" class="st0" d="M179.1,54.5c-0.6-0.3-2.2-1-4.2-1c-0.7,0-1.3,0.1-1.9,0.2c-0.1,0-0.1,0-0.1,0.1
						c0,0.1,0,0.1,0,0.2l0,0c0,0.1,0.1,0.2,0.2,0.2l0,0l0,0c0.6-0.1,1.2-0.2,1.8-0.2c1.9,0,3.4,0.6,4,0.9c0,0,0.1,0,0.1,0
						c0.1,0,0.2,0,0.2-0.1l0,0c0-0.1,0-0.1,0-0.2C179.2,54.5,179.1,54.5,179.1,54.5"/>
					<path id="Fill-11" class="st0" d="M179.1,55.9c-0.6-0.3-2.2-1-4.2-1c-0.7,0-1.3,0.1-1.9,0.2c-0.1,0-0.1,0-0.1,0.1
						c0,0.1,0,0.1,0,0.2l0,0c0,0.1,0.1,0.2,0.2,0.2l0,0l0,0c0.6-0.1,1.2-0.2,1.8-0.2c1.9,0,3.4,0.6,4,0.9c0,0,0.1,0,0.1,0
						c0.1,0,0.2,0,0.2-0.1l0,0c0-0.1,0-0.1,0-0.2C179.2,55.9,179.1,55.9,179.1,55.9"/>
					<path id="Fill-12" class="st0" d="M179.1,57.3c-0.6-0.3-2.2-1-4.2-1c-0.7,0-1.3,0.1-1.9,0.2c-0.1,0-0.1,0-0.1,0.1
						c0,0.1,0,0.1,0,0.2l0,0c0,0.1,0.1,0.2,0.2,0.2l0,0l0,0c0.6-0.1,1.2-0.2,1.8-0.2c1.9,0,3.4,0.6,4,0.9c0,0,0.1,0,0.1,0
						c0.1,0,0.2,0,0.2-0.1l0,0c0-0.1,0-0.1,0-0.2C179.1,57.3,179.1,57.3,179.1,57.3"/>
					<path id="Fill-13" class="st0" d="M173.5,51.3c0.4-0.1,0.9-0.1,1.3-0.1c1.9,0,3.4,0.6,4,0.9c0,0,0.1,0,0.1,0
						c0.1,0,0.2,0,0.2-0.1l0,0c0-0.1,0-0.1,0-0.2c0-0.1-0.1-0.1-0.1-0.1c-0.6-0.3-2.1-0.9-4-1l0-0.8c1.8,0,3.3,0.6,3.8,0.9
						c0,0,0.1,0,0.1,0c0.1,0,0.2,0,0.2-0.1l0,0c0-0.1,0-0.1,0-0.2c0-0.1-0.1-0.1-0.1-0.1c-0.3-0.2-2-0.9-4-1l0-0.9
						c1.8,0,3.3,0.6,3.8,0.9c0,0,0.1,0,0.1,0c0.1,0,0.2,0,0.2-0.1l0,0c0-0.1,0-0.1,0-0.2c0-0.1-0.1-0.1-0.1-0.1
						c-0.6-0.3-2.2-1-4.2-1c-0.7,0-1.3,0.1-1.9,0.2l-0.2,0.1l0,3.2L173.5,51.3"/>
					<path id="Fill-14" class="st0" d="M186.8,21.3C186.7,21.3,186.7,21.3,186.8,21.3C186.7,21.3,186.8,21.3,186.8,21.3
						c-1,0.2-2.3,2-2.6,2.4c-0.1,0.5,0,0.8,0.3,1.2c0.3,0.4,0.1,0.8-0.1,1.3c-0.2,0.4-0.6,1.3-0.7,1.8c-0.2,0.3-0.6,0.5-0.9,0.6
						c-0.1,0-0.1-0.2-0.1-0.2c-0.5-0.7-1.3-0.6-1.3-0.6c-0.9,0.2-0.9,0.4-0.9,0.4c0.2,0,0.8,0.2,0.8,0.2c0,0.1,0.2,0.3,0.2,0.3
						c-0.5-0.1-1,0.2-1,0.2c-0.8,0.6-0.5,1.2-0.5,1.2c0-0.5,0.7-0.6,0.7-0.6c0.3,0.3,1.5-0.2,1.5-0.2l-1.1,0.9
						c-0.4,0.5-0.2,1.1-0.2,1.1c0-0.4,0.6-0.5,0.6-0.5c0.4,0,0.5-0.2,0.5-0.2c0.7-0.1,0.7-0.8,0.7-0.8c1-0.4,2-0.2,2-0.2
						c0.6,0.4,1.1,0.6,1.1,0.6l0.1-0.2c0.5-0.1,0.7,0.5,0.7,0.5c0.2-0.7-0.4-1-0.4-1c-0.2-0.3-0.7-0.3-0.7-0.3l-0.8-0.2
						c0,0-0.2-0.1-0.2-0.1c-0.1-0.2-0.2-0.4-0.1-0.6c0.1-0.2,0.1-0.4,0.2-0.5c0.4-0.5,1-1.2,1.2-1.6c0.2-0.4,0.4-1.1,0.9-1.4
						c0.2-0.1,0.5-0.2,0.8-0.3l0,0c0,0,0,0,0,0c0.1-0.1,0.3-0.1,0.4-0.2c0.5-0.2,0.8-0.5,0.8-0.5C188.2,23.2,187.5,22.5,186.8,21.3"
						/>
					<path id="Fill-15" class="st0" d="M184.5,20.6c0.7,0.2,1.1,0.8,1.1,0.9c0.3-0.2,0.6-0.4,0.8-0.5c0,0-0.7-1.2-1.9-1.2
						c0,0,0,0-0.1,0h0l0,0c-0.6,0-1.7,0.6-4.2,2.2c-3.9,2.5-5.9,1.1-5.9,1.1c-0.7,1.9-1.9,2.4-1.9,2.4s0.3,0.3,1,0.6
						c0,0,0,0,0.1-0.1c0.2-0.2,0.5-0.5,0.7-0.8c0.1-0.2,0.2-0.3,0.3-0.5s0.2-0.3,0.3-0.4c0.1-0.1,0.1-0.2,0.2-0.3
						c0-0.1,0.1-0.1,0.1-0.1s0,0,0,0.1c0,0.1,0,0.2-0.1,0.4c0,0.1-0.1,0.3-0.2,0.5c-0.1,0.2-0.1,0.4-0.2,0.6
						c-0.2,0.3-0.3,0.7-0.5,0.9c0.4,0.1,0.8,0.2,1.4,0.3c0,0,0,0,0-0.1c0.2-0.2,0.4-0.6,0.6-0.9c0.1-0.2,0.2-0.4,0.2-0.5
						c0.1-0.2,0.1-0.3,0.2-0.5c0-0.1,0.1-0.3,0.1-0.4c0-0.1,0-0.1,0-0.1s0,0.1,0,0.1c0,0.1,0,0.2,0,0.4c0,0.2,0,0.3-0.1,0.5
						c0,0.2-0.1,0.4-0.1,0.6c-0.1,0.3-0.2,0.6-0.3,0.9c0.5,0,1.1-0.1,1.7-0.3c0,0,0-0.1,0-0.1c0.1-0.3,0.2-0.7,0.3-1.1
						c0-0.2,0.1-0.4,0.1-0.6c0-0.2,0-0.4,0-0.5c0-0.2,0-0.3,0-0.4c0-0.1,0-0.1,0-0.1s0,0,0,0.1c0,0.1,0.1,0.2,0.1,0.4
						c0,0.2,0.1,0.3,0.1,0.5c0,0.2,0,0.4,0.1,0.6c0,0.3,0,0.6,0,0.9c0.4-0.2,0.9-0.3,1.3-0.6c0.2-0.1,0.4-0.2,0.5-0.3
						c0-0.3,0-0.6-0.1-0.9c0-0.2-0.1-0.4-0.1-0.6c0-0.2-0.1-0.4-0.1-0.5c0-0.1-0.1-0.3-0.1-0.3c0-0.1,0-0.1,0-0.1s0,0,0.1,0.1
						c0,0.1,0.1,0.2,0.2,0.3c0.1,0.1,0.2,0.3,0.2,0.5c0.1,0.2,0.2,0.4,0.2,0.6c0.1,0.2,0.1,0.5,0.2,0.7c0.5-0.3,1-0.6,1.5-0.9
						c0-0.3-0.1-0.6-0.2-1c0-0.2-0.1-0.4-0.2-0.5c-0.1-0.2-0.1-0.3-0.2-0.4c-0.1-0.1-0.1-0.2-0.2-0.3c0-0.1-0.1-0.1-0.1-0.1
						s0,0,0.1,0.1c0.1,0.1,0.1,0.2,0.2,0.3c0.1,0.1,0.2,0.3,0.3,0.4c0.1,0.2,0.2,0.3,0.3,0.5c0.1,0.3,0.3,0.5,0.4,0.8
						c0.3-0.2,0.5-0.4,0.7-0.6h0l0.2-0.2c0,0,0-0.3-0.1-0.5c-0.1-0.1-0.1-0.3-0.2-0.4c-0.1-0.2-0.2-0.3-0.3-0.5
						c-0.1-0.2-0.2-0.3-0.3-0.4c-0.1-0.1-0.2-0.2-0.2-0.3c-0.1-0.1-0.1-0.1-0.1-0.1s0,0,0.1,0.1c0.1,0.1,0.2,0.1,0.3,0.2
						c0.1,0.1,0.2,0.2,0.4,0.3c0.1,0.1,0.3,0.3,0.4,0.4c0,0,0,0,0.1,0.1c0,0,0.3,0.4,0.3,0.8c0,0,0.5-0.7,1-1.2
						C185.1,20.9,184.4,20.5,184.5,20.6"/>
					<path id="Fill-16" class="st0" d="M167.6,13.3c1.3,0.2,3.1-0.6,3.9-1.4c-0.1-0.2-0.5-0.3-0.7-0.3c-1,0.7-3.1,1.7-4.4,0.7
						c0,0-1.3-0.9-0.4-2.4c0,0,0.2,0.8,0.7,0.8c0,0,0.1-1.3,0.9-1.5c0,0-1-0.4-1.9,0.4C164.6,10.6,165.3,12.9,167.6,13.3"/>
					<path id="Fill-17" class="st0" d="M175.4,21.1c1.2-0.2,2.4,0.4,2.4,0.4c0.4-1.3-0.2-1.7-0.2-1.7
						C176.6,20.8,175.4,21.1,175.4,21.1"/>
					<path id="Fill-18" class="st0" d="M179.7,19.8c0,0,0.3-1.2-0.6-1.7c0,0-0.5,0.8-1,1.2c0,0,0.4,0.5,0.2,0.9
						C178.3,20.3,179.1,19.6,179.7,19.8"/>
					<path id="Fill-19" class="st0" d="M182.9,17c0,0,0.4-1.5,1.8-1.5c0,0-0.8-1.3-2.7-1.3c-1.9,0-2,1.5-2,1.5v0
						c0,0,1.1-0.6,2.2,0.3C182.3,16,182.8,16.4,182.9,17"/>
					<path id="Fill-20" class="st0" d="M171.5,18.4c-0.1,0.1-0.2,0.2-0.4,0.4c-0.1,0.1-0.3,0.3-0.4,0.4c-0.2,0.3-0.5,0.6-0.6,0.9
						c0,0.1-0.1,0.1-0.1,0.1c0,0,0,0,0,0c-0.1,0.5-0.3,1-0.3,1.4c0.1-0.1,0.2-0.2,0.3-0.4c0.1-0.1,0.3-0.3,0.4-0.4
						c0.1-0.1,0.3-0.2,0.4-0.3c0.1-0.1,0.2-0.2,0.3-0.2c0.1,0,0.1-0.1,0.1-0.1s0,0-0.1,0.1c-0.1,0.1-0.1,0.2-0.2,0.3
						c-0.1,0.1-0.2,0.3-0.3,0.4c-0.1,0.2-0.2,0.3-0.3,0.5c-0.2,0.3-0.4,0.7-0.5,1c0,0.1-0.1,0.2-0.1,0.3c0.1,0.3,0.2,0.6,0.4,0.8
						c0,0,0.1-0.1,0.2-0.3c0.2-0.4,0.5-0.9,0.8-1.3c0,0,0,0,0,0c0.4-0.7,1.1-1.4,1.3-1.5c0,0-0.4-1.4,0-2.8c0.2-0.9,1-2.3,1.1-3.3
						c-0.3,0.3-0.5,0.6-1.1,0.6l-0.1,0.3v0l-0.5,0.9c0.2-0.1,0.5-0.2,0.6-0.2c0.1,0,0.2-0.1,0.3-0.1c0.1,0,0.1,0,0.1,0s0,0-0.1,0.1
						c-0.1,0-0.1,0.1-0.2,0.1c-0.2,0.1-0.4,0.3-0.6,0.5c-0.2,0.2-0.4,0.4-0.5,0.6c0,0,0,0-0.1,0.1c-0.1,0.1-0.1,0.3-0.2,0.4
						c-0.1,0.3-0.3,0.5-0.4,0.8c-0.1,0.1-0.1,0.3-0.2,0.4c0.1-0.1,0.3-0.2,0.4-0.3C171.2,18.5,171.3,18.4,171.5,18.4
						c0.1-0.2,0.2-0.2,0.3-0.3c0.1,0,0.1-0.1,0.1-0.1s0,0-0.1,0.1C171.7,18.2,171.7,18.3,171.5,18.4"/>
					<path id="Fill-21" class="st0" d="M188.2,13c0-0.8,0.2-1.6,0.8-2c1.3-0.9,4.9-0.7,4.9-0.7c-0.8-0.3-8.2-1.5-12,2.1
						c0,0,3.5-1.8,6,0.4C188,12.8,188.1,12.9,188.2,13"/>
					<path id="Fill-22" class="st0" d="M187.4,13c0,0-0.9-0.6-2-0.8c-1.3-0.2-3.7,0.2-4.6,1.7c2.4-0.7,3.5,0.3,4.2,1
						C185.3,13.2,187.1,13,187.4,13"/>
					<path id="Fill-23" class="st0" d="M180.1,18.6c0.6-1.4,2.3-1.3,2.3-1.3c0-0.3-0.5-1.1-1.6-1.3c-1.2-0.3-1.7,1.6-1.7,1.6
						C180.1,17.7,180.1,18.6,180.1,18.6"/>
					<path id="Fill-24" class="st0" d="M172.8,20.8c-0.2,0.1-0.4,0.4-0.4,0.4c-0.7,0.9-1.1,1.6-1.7,2.7c-0.8,1.3-1.6,3.2-2.6,4.2
						c-0.1,0.1-0.1,0.1-0.3,0.2c-0.1,0.1-0.3-0.2-0.3-0.2c-0.5-0.7-1.3-0.6-1.3-0.6c-0.9,0.2-0.9,0.4-0.9,0.4c0.2,0,0.8,0.2,0.8,0.2
						c0,0.1,0.2,0.3,0.2,0.3c-0.5-0.1-1,0.2-1,0.2c-0.8,0.6-0.5,1.2-0.5,1.2c0-0.5,0.7-0.6,0.7-0.6c0.3,0.3,1.5-0.2,1.5-0.2
						l-1.1,0.9c-0.4,0.5-0.2,1.1-0.2,1.1c0-0.4,0.6-0.5,0.6-0.5c0.4,0,0.5-0.2,0.5-0.2c0.7-0.1,0.7-0.8,0.7-0.8c1-0.4,2-0.2,2-0.2
						c0.6,0.4,1.1,0.6,1.1,0.6l0.1-0.2c0.5-0.1,0.7,0.5,0.7,0.5c0.2-0.7-0.4-1-0.4-1c-0.2-0.3-0.7-0.3-0.7-0.3l-0.7-0.2
						c-0.1-0.1-0.1-0.2-0.1-0.3c-0.1-0.6,0.4-1.2,0.7-1.6c0.9-1,2.3-1.4,3-2.1c0.6-0.7,1.2-1.7,1.1-3C174,21,173,20.7,172.8,20.8"/>
					<path id="Fill-25" class="st0" d="M165.4,16.9c0.4,1,0.2,2,0.2,2c-0.4,0.6-0.6,1.1-0.6,1.1l0.2,0.1c0.1,0.5-0.5,0.7-0.5,0.7
						c0.7,0.2,1-0.4,1-0.4c0.3-0.2,0.3-0.7,0.3-0.7l0.2-0.7c0.1-0.1,0.2-0.1,0.3-0.1c0.4-0.2,0.7,0,0.9,0.2c0.1,0.1,0.2,0.2,0.3,0.3
						c0.5,0.5,0.7,1.2,1.1,1.7l0,0l0.5,0.8c0-0.5,0.1-1.1,0.3-1.6c0.1-0.3,0.2-0.6,0.3-0.9h-0.4c0,0,0,0-0.1,0
						c-0.6-0.2-1.1-0.7-1.7-1.2c-0.2-0.2-0.6-0.5-1-0.7c-0.1-0.1-0.2-0.1-0.2-0.2c-0.1-0.1,0.2-0.3,0.2-0.3c0.7-0.5,0.6-1.3,0.6-1.3
						c-0.2-0.9-0.4-0.9-0.4-0.9c0,0.2-0.2,0.8-0.2,0.8c-0.1,0-0.3,0.2-0.3,0.2c0.1-0.5-0.2-1-0.2-1c-0.6-0.8-1.2-0.5-1.2-0.5
						c0.5,0,0.6,0.7,0.6,0.7c-0.3,0.3,0.2,1.5,0.2,1.5l-0.9-1.1c-0.5-0.4-1.1-0.2-1.1-0.2c0.4,0,0.5,0.6,0.5,0.6
						c0,0.4,0.2,0.5,0.2,0.5C164.7,16.9,165.4,16.9,165.4,16.9"/>
					<path id="Fill-26" class="st0" d="M177.5,19.2L177.5,19.2c0.9-0.8,1.7-2.7,2-3.5c2.7-9,14.9-5.8,14.9-5.8c-3.8-1.5-7.6-1-7.6-1
						s-5.6,0.3-7.7,4.9c-1.2,2.8-1.9,3.8-2.1,4.1c0,0,0,0,0,0c-1.4,1.5-2.8,1.4-2.8,1.4c1.4-0.4,2.1-1.4,2.3-1.7
						c0,0,0.2-0.3,0.2-0.4c-0.1,0-0.4,0.1-0.6,0.1c-0.4,0-0.8-0.3-0.9-0.9c-0.3,0.3-0.5,0.7-0.5,0.7c0-0.5,0.4-1,0.7-1.3
						c0.1-0.1,0.1-0.2,0.2-0.2c0,0,0.1-0.1,0.1-0.1l0,0c0.2-0.2,0.3-0.3,0.3-0.3s-0.7-0.4-0.7-1.1c-0.4,0.3-0.6,0.7-0.6,0.7
						c0.1-0.5,0.5-1.1,0.8-1.3c0.2-0.3,0.6-0.4,0.6-0.4s-0.7-0.1-0.6-1.3c-0.3,0.3-0.5,0.6-0.5,0.6c0.1-0.4,0.4-0.9,0.7-1.2
						c0.2-0.4,0.5-0.5,0.5-0.5c-0.1,0-0.1-0.1-0.2-0.2c-0.1-0.1-0.2-0.1-0.2-0.2c-0.1-0.1-0.3-0.3-0.4-0.5c-0.1-0.2-0.3-0.4-0.3-0.6
						c0-0.1-0.1-0.2,0-0.4c0-0.1,0-0.2,0.1-0.3c0.1-0.1,0.1-0.2,0.2-0.3c0.1-0.1,0.1-0.1,0.2-0.2c0.1-0.1,0.3-0.2,0.4-0.2
						c0.1,0,0.1-0.1,0.1-0.1s-0.1,0-0.1,0.1c-0.1,0-0.1,0.1-0.3,0.2c-0.1,0.1-0.1,0.1-0.2,0.2c-0.1,0.1-0.1,0.2-0.2,0.3
						c0,0.1-0.1,0.2-0.1,0.3c0,0.1,0,0.2,0.1,0.3c0.1,0.3,0.2,0.5,0.4,0.7c-0.1-0.2-0.1-0.4-0.1-0.7c0.1-0.8,1.3-1.4,1.3-1.4
						s-0.1-0.2-0.5-0.2c0,0-0.9-0.2-2.7,1c-0.9-0.5-2.3-0.3-3.2,0.6c0,0-1.2-0.6-2.7,0.8l1.5,0.4c0.4,0.2,0.5,0.3,0.5,0.8
						c0.7-0.4,1.3-0.3,1.8-0.1c0.3,0.1,0.9,0.6,0.7,1.4c-0.1,0.1-0.1,0.2-0.2,0.3c-0.6,0.6-1.5,0.7-2.3,0.8c-0.2,0-0.5,0.5-0.6,0.8
						l0.2,0c1.1-0.3,2,0.3,3.2-0.1c0.9-0.5,1.2-1.2,1.2-2.3c-0.1-1.6-0.7-2-1-2.1c-0.5-0.1-0.8,0.4-1,0.2c-0.3-0.2-0.2-0.7-0.2-0.7
						c0.3-0.1,0.9,0.1,1.2,0.2c0.3,0.2,1.2,0.6,1.3,2.5c0.1,0.6,0.1,1,0,1.7c-0.2,2-1,2.6-1.2,4.8c0,1.2,0.1,1.5,0.4,1.7
						c0.5,0.4,2,0.3,2.7-0.1C176.6,20,177,19.6,177.5,19.2"/>
					<path id="Fill-27" class="st0" d="M174.5,22.8C174.5,22.8,174.5,22.8,174.5,22.8C174.5,22.8,174.5,22.8,174.5,22.8"/>
					<path id="Fill-28" class="st0" d="M174.5,22.8C174.5,22.8,174.5,22.8,174.5,22.8"/>
					<path id="Fill-29" class="st0" d="M174.5,22.8C174.5,22.8,174.5,22.8,174.5,22.8C174.5,22.8,174.5,22.8,174.5,22.8"/>
					<path id="Fill-30" class="st0" d="M197.7,27.1c-0.3-0.1-0.7,0.2-0.7,0.2l-0.7,0.3c0,0-0.5,0-0.6,0c-0.1-0.3-0.3-0.7-0.5-1.6
						l0,0c0-0.1-0.1-0.2-0.1-0.4h0l-0.2-0.7l-0.2-1.3c0,0,0,0,0-0.1c-0.2-1-0.6-1.5-0.6-1.5l0,0c-1.1-1.8-3.4-2.6-3.4-2.6
						c0.1,0,2.1,0.3,3.4,1.8c0.6-0.1,1.1-0.3,1.7-0.6c2.4-1.3,3.8-4.9,1.8-7.3c-1.9-2.4-5.8-1.3-6.2,0.9c-0.3,1.8,1,2.7,1,2.7
						c-0.3-1.1,1.1-2.4,1.1-2.4c-0.4-0.5-1.5-0.1-1.5-0.1c1.1-2.4,3.3-1.6,3.3-1.6c3.3,1.3,2.6,5.4-0.4,6.5c-1,0.4-2,0.2-2.9-0.1
						c-1.3-0.7-0.7-2.6-0.7-2.6s-0.6,0.7-1.4,0.7h0c0.1,0.4,0.3,0.9,0.3,0.9c-0.4-0.3-0.7-1.3-0.7-1.3h0c-0.2-0.5-0.2-1.4-0.3-1.1
						c-0.1,0.4-0.4,1-1.3,1.1c0,0,0,0,0,0c0.2,0.3,0.4,0.6,0.4,0.6c-0.3-0.2-0.6-0.6-0.8-0.8c-0.3-0.4-0.4-1.2-0.4-1.2
						c-0.7,1.2-2.6,1.5-3.3,1.5c-1.1-0.1-0.8,1.3-0.8,1.3c-0.4-0.2-0.5-0.5-1-0.5c-0.2,0-0.7,0.1-0.9,0.3c-0.6,0.4-1,0.9-1.1,2.5
						c-0.6-0.4-1.1-0.2-1.7,0.2c0,0-0.1,0.8-0.6,1.2c-0.7-0.4-1.5-0.5-1.7-0.5l0,0c0,0-0.6-0.1-1.6,0c0,0,0.1,0.7-0.1,1.4
						c1.4,0.9,3.7,0,4.9-0.8c1.4-0.8,2.8-1.9,4.3-2.5c0.8-0.3,1.5-0.2,2.2,0.2c0.9,0.6,1.9,2.4,3,3.5c0.1,0.1,0.7,0.9,3,1.1
						c0,0,1.2,0,2.1,1.4c0,0.1,0.1,0.1,0.1,0.2c0,0.1,0.1,0.1,0.1,0.2c0.2,0.4,0.4,0.9,0.6,1.5c0,0.2-0.1,0.4-0.1,0.5
						c0,0.1-0.1,0.2-0.1,0.2c0,0,0,0,0,0c0,0.2-0.2-0.1-0.2-0.1c-0.7-0.3-1.3,0.3-1.3,0.3c-0.6,0.6-0.5,0.9-0.5,0.9
						c0.1-0.1,0.7-0.3,0.7-0.3c0.1,0.1,0.3,0.1,0.3,0.1c-0.5,0.2-0.7,0.8-0.7,0.8c-0.3,0.9,0.2,1.3,0.2,1.3
						c-0.3-0.4,0.2-0.9,0.2-0.9c0.4,0.1,1.1-1.1,1.1-1.1l-0.4,1.3c0,0.7,0.5,1,0.5,1c-0.2-0.3,0.1-0.8,0.1-0.8
						c0.3-0.2,0.3-0.5,0.3-0.5c0.4-0.5,0.1-1.1,0.1-1.1c-0.1-0.8,1.5-1.3,1.5-1.3c0.7-0.1,1.2-0.3,1.2-0.3c0.3-0.3,0.8,0,0.8,0
						C198.3,27,197.7,27.1,197.7,27.1"/>
					<g id="Group-34" transform="translate(151.301205, 32.000000)">
						<defs>
							<filter id="Adobe_OpacityMaskFilter" filterUnits="userSpaceOnUse" x="6.7" y="0.7" width="46.4" height="5.3">
								<feColorMatrix  type="matrix" values="1 0 0 0 0  0 1 0 0 0  0 0 1 0 0  0 0 0 1 0"/>
							</filter>
						</defs>
						<mask maskUnits="userSpaceOnUse" x="6.7" y="0.7" width="46.4" height="5.3" id="mask-2_1_">
							<g class="st1">
								<polygon id="path-1_1_" class="st0" points="59.5,50.5 0.3,50.5 0.3,0.7 59.5,0.7 								"/>
							</g>
						</mask>
						<path id="Fill-31" class="st2" d="M53.1,2.6L53.1,2.6c-0.8,0.5-6.2,3.6-19.7-0.4C16.8-2.6,6.7,5.7,6.7,5.7l0.1,0
							C8.3,5,18.5,0,33.7,4.5C48.4,8.8,53.1,2.6,53.1,2.6"/>
						<defs>
							<filter id="Adobe_OpacityMaskFilter_1_" filterUnits="userSpaceOnUse" x="0.3" y="22.7" width="59.2" height="27.9">
								<feColorMatrix  type="matrix" values="1 0 0 0 0  0 1 0 0 0  0 0 1 0 0  0 0 0 1 0"/>
							</filter>
						</defs>
						<mask maskUnits="userSpaceOnUse" x="0.3" y="22.7" width="59.2" height="27.9" id="mask-2_2_">
							<g class="st3">
								<polygon id="path-1_2_" class="st0" points="59.5,50.5 0.3,50.5 0.3,0.7 59.5,0.7 								"/>
							</g>
						</mask>
						<path id="Fill-33" class="st4" d="M29.9,50.6c0,0,26.4-6.7,29.6-27.9l-0.1,0.1C57,38.2,29.9,46.7,29.9,46.7h0
							c0,0-27.1-8.4-29.5-23.9l-0.1-0.1C3.5,43.8,29.9,50.6,29.9,50.6"/>
					</g>
					<path id="Fill-35" class="st0" d="M181.2,3.9c10,0,26.5,4.2,28,7c0.7,1.2,1.3,7.1,1.5,8.2l0.1,0.2c0,0,0.3-6.1,0.2-7.9
						c-0.2-3.8-13.7-10.6-29.8-10.6h0c-16.1,0-29.6,6.8-29.8,10.6c-0.1,1.8,0.2,7.9,0.2,7.9l0.1-0.2c0.1-1.1,0.7-7,1.5-8.2
						C154.7,8.1,171.2,3.9,181.2,3.9"/>
					<path id="Fill-36" class="st0" d="M298.9,41.7c0,0-6.6,8.2-32.3,3c-28.9-5.7-47.4,1.1-47.4,1.1s18.5-9.6,47.4-3.8
						C292.3,47.2,298.9,41.7,298.9,41.7"/>
					<path id="Fill-37" class="st0" d="M291.4,74.3c0.2-0.9,0.6-2.3,2.3-2.3c1.8,0,2,1.5,2.1,2.3H291.4z M297.4,77.3
						c-0.6,0.8-1.3,1.6-2.9,1.6c-2.8,0-3.1-2.5-3.2-3.2h7c0-1,0-2.7-1.3-4c-1.1-1.1-2.5-1.2-3.3-1.2c-3.2,0-4.9,2.2-4.9,4.8
						c0,2.8,1.7,5,5,5c3.1,0,3.9-1.9,4.2-2.9L297.4,77.3z M278.8,80.1h0.9l2.4-5.3l2.4,5.3h0.9l3.4-9.1h-1.9l-1.6,4.5l-0.3,0.9
						c-0.2-0.5-0.2-0.6-0.4-1l-1.8-4.4h-0.8l-2.4,5.4c-0.1-0.4-0.2-0.5-0.3-1l-1.5-4.4h-2.5L278.8,80.1z M272.8,78.2
						c-0.5,0.3-1,0.7-1.9,0.7c-1.2,0-1.6-0.8-1.6-1.6c0-1.2,0.9-1.7,2-1.7c0.6,0,1.1,0.2,1.5,0.3V78.2z M275.1,74.6
						c0-0.8,0-2-0.9-2.9c-0.5-0.5-1.5-1-3.1-1c-2.7,0-3.4,1.6-3.8,2.4l0.6,0.3c0.4-0.5,1-1.3,2.5-1.3c0.7,0,1.7,0.2,2.1,1.2
						c0.2,0.4,0.2,0.9,0.2,1.4c-0.7-0.2-1.3-0.4-2.1-0.4c-2.1,0-3.8,1.2-3.8,3.3c0,1.6,1.2,2.9,3,2.9c1.7,0,2.6-0.9,3-1.3v1h2.3
						V74.6z M261.6,71h-1.4v1.4h1.4v5c0,0.8,0.1,1.6,0.7,2.2c0.7,0.7,1.6,0.7,2.1,0.7c1.2,0,1.8-0.4,2.3-0.7l-0.3-0.6
						c-0.3,0.1-0.5,0.2-0.9,0.2c-0.2,0-0.9,0-1.3-0.8c-0.2-0.3-0.3-0.7-0.3-1.4v-4.6h2.1V71h-2.1v-2.5h-2.4V71z M255.8,71h-2.4V80
						h2.4v-7c0.4-0.3,0.9-0.6,1.8-0.6c0.7,0,1.1,0.2,1.6,0.4v-2.1c-0.2,0-0.4-0.1-0.7-0.1c-1.6,0-2.3,0.9-2.7,1.4V71z M245.2,74.3
						c0.2-0.9,0.6-2.3,2.3-2.3c1.8,0,2,1.5,2.1,2.3H245.2z M251.2,77.3c-0.6,0.8-1.3,1.6-2.9,1.6c-2.8,0-3.1-2.5-3.2-3.2h7
						c0-1,0-2.7-1.3-4c-1.1-1.1-2.5-1.2-3.3-1.2c-3.2,0-4.9,2.2-4.9,4.8c0,2.8,1.7,5,5,5c3.1,0,3.9-1.9,4.2-2.9L251.2,77.3z
						 M235,73.2c0,0,0.6-1.2,1.9-1.2c0.9,0,1.5,0.5,1.8,1.2c0.4,0.7,0.4,1.5,0.4,2.1c0,3-1.4,3.6-2.3,3.6c-1,0-1.5-0.6-1.9-1V73.2z
						 M232.6,80h2.4v-0.9c0.3,0.4,1.1,1.3,2.6,1.3c1.8,0,4-1.4,4-5c0-2.8-1.4-4.8-3.9-4.8c-1.7,0-2.4,0.9-2.8,1.4v-4.5h-2.4V80z
						 M227.1,75.6h-3.7l1.8-4.1L227.1,75.6z M219.3,80h2.2l1.2-2.8h5.2l1.2,2.8h2.7l-5.7-12.5h-0.9L219.3,80L219.3,80z"/>
					<path id="Fill-38" class="st0" d="M292,62.7h1.7V49.7H292V62.7z M287.9,58c0,3-1.3,4.1-2.8,4.1c-0.9,0-1.9-0.5-2.4-1.8
						c-0.1-0.4-0.4-1.1-0.4-2.4c0-2,0.7-4,2.8-4C287.1,54,287.9,55.9,287.9,58L287.9,58z M289.7,57.9c0-2.9-1.7-5-4.5-5
						c-2.5,0-4.6,1.6-4.6,5.3c0,0.9,0.1,2.7,1.5,3.9c1,0.9,2.2,1,3,1c2.1,0,3.1-1,3.6-1.6C289.3,60.7,289.7,59.5,289.7,57.9
						L289.7,57.9z M276.6,60.3c-0.4,0.4-1.2,1-2.3,1c-1.8,0-2.6-1.8-2.6-3.6c0-2.1,1-3.6,2.5-3.6c0.5,0,0.9,0.1,1.4,0.4
						c0.5,0.4,0.8,0.8,1,1.1V60.3z M276.6,53.3v1.2c-0.4-0.6-1.1-1.6-2.8-1.6c-2,0-3.8,1.7-3.8,4.9c0,3,1.6,4.6,3.7,4.6
						c1.8,0,2.6-1.1,2.9-1.4v0.5c0,1.3,0,2.2-0.7,3c-0.5,0.6-1.3,0.9-2.1,0.9c-0.9,0-1.8-0.3-2.4-0.9c-0.4-0.4-0.6-0.7-0.7-1.1
						l-0.5,0.2c0.6,2.6,2.8,2.9,3.8,2.9c1.6,0,2.7-0.6,3.3-1.2c1-1,1-2.3,1-3.7v-8.3H276.6z M268.2,55.6c-0.1-0.4-0.2-1.3-1.1-2
						c-0.7-0.5-1.6-0.6-2.3-0.6c-2.1,0-3.4,1.2-3.4,2.8c0,1.8,1.6,2.3,2.6,2.6c1,0.3,1.5,0.5,1.9,0.6c0.3,0.1,0.9,0.5,0.9,1.4
						c0,0.9-0.8,1.6-2.1,1.6c-0.9,0-1.9-0.3-2.5-0.9c-0.4-0.4-0.6-0.8-0.8-1c-0.1,0.1-0.4,0.1-0.5,0.2c0.1,0.4,0.3,1.4,1.2,2.1
						c0.7,0.5,1.7,0.7,2.6,0.7c1,0,2-0.2,2.7-0.8c0.6-0.5,1-1.3,1-2.1c0-2-1.9-2.6-2.9-2.8c-0.1,0-0.9-0.3-1-0.3
						c-1-0.3-1.6-0.7-1.6-1.5c0-0.8,0.8-1.4,2-1.4c1.8,0,2.4,1.1,2.7,1.6C267.8,55.7,268.1,55.6,268.2,55.6L268.2,55.6z M258.7,53.3
						l-2.9,6.6l-2.7-6.6h-1.9l3.7,8.5c-1.2,2.8-2,3.7-3.7,4.2v0.5c2.4,0.1,3.6-1.3,4.8-3.9l4.1-9.3H258.7z M248.3,54.4h1.9v-1.1
						h-1.9v-0.9c0-0.8,0-1.2,0.2-1.6c0.2-0.3,0.6-0.6,1.2-0.6c0.4,0,0.8,0.1,1,0.2c0.1-0.1,0.2-0.3,0.3-0.4
						c-0.2-0.2-0.7-0.8-1.9-0.8c-0.8,0-1.3,0.3-1.7,0.5c-0.8,0.6-0.9,1.5-0.9,2.3v1.2h-1.3v1.1h1.3v8.3h1.7V54.4z M241.8,50.6
						c0,0.6,0.5,1,1,1c0.3,0,1-0.2,1-1c0-0.5-0.4-1-1-1S241.8,50,241.8,50.6L241.8,50.6z M241.9,62.7h1.7v-9.4h-1.7V62.7z
						 M236.7,55.6c0.2-0.3,0.8-1.1,1.9-1.1c0.6,0,1.1,0.3,1.4,0.4v-1.5c-0.3-0.1-0.5-0.2-1-0.2c-1.4,0-2.1,1.1-2.4,1.5v-1.3H235v9.4
						h1.7V55.6z M226.3,50.8h2c1.6,0,2.2,0.4,2.6,0.8c0.3,0.4,0.5,0.9,0.5,1.5c0,1.1-0.7,2.3-2.4,2.7c-1.1,0.3-2.1,0.3-2.7,0.2V50.8
						z M226.3,56.8c1.1,0.1,1.2,0.1,1.6,0.1c3.8,0,5.4-1.8,5.4-3.9c0-1.7-1-2.5-1.8-2.9c-0.7-0.3-1.6-0.4-2.8-0.4h-4.1v13.1h1.8
						V56.8L226.3,56.8z"/>
					<path id="Fill-39" class="st0" d="M297.1,25.3l-2.9,6.6l-2.7-6.6h-1.9l3.7,8.5c-1.2,2.8-2,3.7-3.7,4.2v0.5
						c2.4,0.1,3.6-1.3,4.8-3.9l4.1-9.3H297.1z M287,26.3h2v-1.1h-2v-2.5h-1.7v2.5H284v1.1h1.3v5.9c0,1.1,0.1,1.9,0.8,2.4
						c0.3,0.2,0.8,0.4,1.5,0.4c1.1,0,1.7-0.5,2-0.8c-0.1-0.1-0.2-0.3-0.3-0.4c-0.3,0.1-0.6,0.3-1.1,0.3c-1.3,0-1.3-1.2-1.3-2.4V26.3
						z M281.1,22.5c0,0.6,0.5,1,1,1c0.3,0,1-0.2,1-1c0-0.5-0.4-1-1-1C281.5,21.5,281.1,21.9,281.1,22.5L281.1,22.5z M281.2,34.7h1.7
						v-9.4h-1.7V34.7z M279.4,27.5c-0.1-0.4-0.2-1.3-1.1-2c-0.7-0.5-1.6-0.6-2.3-0.6c-2.1,0-3.4,1.2-3.4,2.8c0,1.8,1.6,2.3,2.6,2.6
						c1,0.3,1.5,0.5,1.9,0.6c0.3,0.1,0.9,0.5,0.9,1.4c0,0.9-0.8,1.6-2.1,1.6c-0.9,0-1.9-0.3-2.5-0.9c-0.4-0.4-0.6-0.8-0.8-1
						c-0.1,0.1-0.4,0.1-0.5,0.2c0.1,0.4,0.3,1.4,1.2,2.1c0.7,0.5,1.7,0.7,2.6,0.7c1,0,2-0.2,2.7-0.8c0.6-0.5,1-1.3,1-2.1
						c0-2-1.9-2.6-2.9-2.8c-0.1,0-0.9-0.3-1-0.3c-1-0.3-1.6-0.7-1.6-1.5c0-0.8,0.8-1.4,2-1.4c1.8,0,2.4,1.1,2.7,1.6
						C279.1,27.6,279.3,27.5,279.4,27.5L279.4,27.5z M268.2,27.5c0.2-0.3,0.8-1.1,1.9-1.1c0.6,0,1.1,0.3,1.4,0.4v-1.5
						c-0.3-0.1-0.5-0.2-1-0.2c-1.4,0-2.1,1.1-2.4,1.5v-1.3h-1.7v9.4h1.7V27.5z M257.7,29c0.3-2.2,1.8-2.9,2.9-2.9
						c0.9,0,2.6,0.6,2.7,2.9H257.7z M264.9,30c0-0.7,0.1-2.7-1.4-4c-0.7-0.7-1.7-1.1-2.9-1.1c-2.5,0-4.7,1.9-4.7,5.1
						c0,3.4,2.2,5.1,4.7,5.1c3.2,0,4-2.4,4.1-3c-0.1,0-0.3-0.1-0.5-0.2c-0.3,0.5-1.3,1.9-3.3,1.9c-0.3,0-1.6,0-2.6-1.2
						c-0.7-1-0.8-2.1-0.8-2.6H264.9z M254.3,25.3l-2.7,6.3c-0.1,0.3-0.2,0.4-0.2,0.6c-0.1-0.3-0.2-0.6-0.2-0.6l-2.6-6.3h-1.8
						l4.1,9.5h0.6l4.2-9.5H254.3z M243.9,22.5c0,0.6,0.5,1,1,1c0.3,0,1-0.2,1-1c0-0.5-0.4-1-1-1C244.3,21.5,243.9,21.9,243.9,22.5
						L243.9,22.5z M244,34.7h1.7v-9.4H244V34.7z M241.8,28c0-0.9,0-1.8-0.8-2.5c-0.2-0.1-0.8-0.7-2.2-0.7c-2,0-2.9,1.2-3.2,1.7v-1.3
						H234v9.4h1.7v-7c0.6-1.1,1.6-1.6,2.5-1.6c0.6,0,1.6,0.2,1.9,1.2c0.1,0.5,0.1,1,0.1,2v5.3h1.7V28z M231.7,21.6h-1.8v10.2
						c-0.8,0.9-2.3,2-4,2c-1.2,0-2.2-0.6-2.7-1.3c-0.3-0.5-0.5-1.2-0.5-2.6v-8.3h-1.8v9.1c0,1.4,0.2,2.3,1,3.1
						c0.7,0.7,1.9,1.3,3.4,1.3c1.7,0,3.2-0.6,4.5-2.3v1.9h1.8V21.6L231.7,21.6z"/>
					<g id="Group-43" transform="translate(20.813922, 0.000000)">
						<path id="Fill-40" class="st0" d="M273.3,15c-0.5,0.3-1.1,0.7-2,0.7c-1.3,0-1.7-0.9-1.7-1.7c0-1.2,1-1.8,2.1-1.8
							c0.6,0,1.1,0.2,1.6,0.4V15z M275.7,11.1c0-0.9,0-2.2-1-3.1c-0.5-0.6-1.6-1.1-3.3-1.1c-2.9,0-3.6,1.7-4,2.6l0.6,0.3
							c0.4-0.5,1.1-1.4,2.7-1.4c0.7,0,1.8,0.2,2.2,1.3c0.2,0.5,0.2,1,0.3,1.5c-0.8-0.2-1.4-0.4-2.3-0.4c-2.3,0-4.1,1.2-4.1,3.5
							c0,1.7,1.2,3.1,3.2,3.1c1.8,0,2.7-0.9,3.2-1.4v1.1h2.4V11.1z M258.5,10.9c0.2-1,0.6-2.5,2.4-2.5c1.9,0,2.1,1.6,2.2,2.5H258.5z
							 M264.9,14c-0.7,0.9-1.4,1.7-3.1,1.7c-3,0-3.3-2.7-3.4-3.4h7.5c0-1.1,0-2.9-1.4-4.2c-1.2-1.2-2.7-1.3-3.5-1.3
							c-3.4,0-5.2,2.3-5.2,5.1c0,3,1.8,5.4,5.3,5.4c3.3,0,4.1-2,4.5-3L264.9,14z M246.5,14.4c0.1,0.5,0.2,1.2,0.8,1.8
							c0.4,0.4,1.4,1.1,3.3,1.1c2.8,0,4.1-1.6,4.1-3.3c0-0.8-0.3-1.5-0.8-2c-0.5-0.6-1.3-0.8-1.8-0.9c-0.4-0.1-0.7-0.2-1.1-0.2
							c-0.9-0.2-1.7-0.5-1.7-1.3c0-0.6,0.5-1.3,1.9-1.3c1.9,0,2.4,1,2.6,1.3l0.7-0.2c-0.1-0.4-0.2-0.9-0.8-1.5
							c-0.6-0.6-1.6-1.1-2.9-1.1c-2.8,0-4.1,1.7-4.1,3.3c0,1.8,1.5,2.3,1.8,2.4c0.4,0.2,0.9,0.3,1.3,0.4c1.2,0.3,1.9,0.5,2.1,1.1
							c0.1,0.2,0.1,0.3,0.1,0.5c0,0.1,0,0.9-1.1,1.3c-0.3,0.1-0.6,0.1-0.9,0.1c-1.1,0-2-0.4-2.5-0.9c-0.3-0.3-0.4-0.5-0.5-0.8
							L246.5,14.4z M245,10.4c0-0.8-0.1-1.8-0.8-2.5c-0.5-0.5-1.3-0.9-2.3-0.9c-1.8,0-2.7,1-3.2,1.5V7.3h-2.5v9.7h2.5V9.7
							c0.4-0.5,1.1-1.2,2.1-1.2c0.9,0,1.4,0.6,1.5,1.1c0.1,0.3,0.1,0.7,0.1,1v6.3h2.5V10.4z M231.7,15c-0.5,0.3-1.1,0.7-2,0.7
							c-1.3,0-1.7-0.9-1.7-1.7c0-1.2,1-1.8,2.1-1.8c0.6,0,1.1,0.2,1.6,0.4V15z M234.1,11.1c0-0.9,0-2.2-1-3.1
							c-0.5-0.6-1.6-1.1-3.3-1.1c-2.9,0-3.6,1.7-4,2.6l0.6,0.3c0.4-0.5,1.1-1.4,2.7-1.4c0.7,0,1.8,0.2,2.3,1.3
							c0.2,0.5,0.2,1,0.3,1.5c-0.8-0.2-1.4-0.4-2.3-0.4c-2.3,0-4.1,1.2-4.1,3.5c0,1.7,1.2,3.1,3.2,3.1c1.8,0,2.7-0.9,3.2-1.4v1.1
							h2.4V11.1z M214.4,17h0.9l2.6-5.6l2.6,5.6h0.9l3.6-9.8h-2l-1.7,4.8L221,13c-0.2-0.5-0.2-0.6-0.4-1.1l-1.9-4.7h-0.8l-2.5,5.7
							c-0.1-0.5-0.2-0.6-0.3-1l-1.6-4.7h-2.6L214.4,17z M200,13.3c0.1,0.7,0.3,1.8,1.2,2.7c1.3,1.3,3.1,1.3,3.8,1.3
							c0.6,0,2.8,0,4.2-1.5c0.7-0.7,1.2-1.8,1.2-2.9c0-1-0.4-2-1.1-2.6c-0.9-0.9-2.2-1.2-3.2-1.4c-1.4-0.3-2.5-0.5-2.9-1.5
							c-0.1-0.2-0.1-0.5-0.1-0.6c0-1.4,1.3-2.1,2.9-2.1c1.2,0,2.1,0.4,2.7,0.9c0.3,0.3,0.5,0.7,0.7,1.1l0.8-0.2
							c-0.1-0.5-0.2-1.4-1-2.2c-1.2-1.2-3-1.2-3.5-1.2c-4.3,0-5.1,2.7-5.1,4.2c0,3.1,2.8,3.6,4.3,3.9c1.6,0.3,2.8,0.7,2.8,2.2
							c0,1.1-0.9,2.3-2.8,2.3c-1.1,0-2.3-0.3-3.1-1.1c-0.5-0.5-0.7-1-1-1.5L200,13.3L200,13.3z"/>
						<path id="Fill-42" class="st0" d="M119.9,32.9c0-17.8-14.5-32.2-32.2-32.2c-10.9,0-21,5.4-27,14.6l-0.8,1.2l-0.8-1.2
							c-6-9.1-16.1-14.6-27-14.6C14.4,0.7-0.1,15.1-0.1,32.9c0,17.8,14.5,32.2,32.2,32.2c6,0,11.8-1.7,16.9-4.8
							c0.1-0.1,0.2-0.1,0.3-0.2c0.4-0.3,1-0.5,1.7-0.9c2-1.4,5.3-3.9,8-6.5c4.1-4.1,7.9-1.8,7.9-1.8c-3.1,3.2,0.3,6.7,2.3,8.4
							c0.4,0.2,0.7,0.4,0.9,0.6c5.2,3.4,11.3,5.2,17.6,5.2C105.5,65.1,119.9,50.6,119.9,32.9 M110.4,32.9c0,0.2,0,0.4,0,0.6
							c-0.3,12.2-10.4,22-22.6,22c-2.5,0-4.9-0.4-7.3-1.2c-0.1,0-0.2-0.1-0.4-0.1c-0.3-0.1-0.6-0.2-0.9-0.4c-3.6-1.5-6-3.9-6-3.9v0
							c-1.3-1.3-2.5-3.2-2-5.1c0.9-3,4-1.9,4-1.9c-2.2-4.5-8.7-3.8-8.7-3.8c-1.3,0.1-2.7,0.5-4.1,1c-2.7,1.2-6,3.4-8,4.8
							c-7.5,5.8-11.2,7.7-12.3,8.2c-3,1.5-6.4,2.3-10,2.3c-12.5,0-22.7-10.1-22.7-22.7s10.2-22.7,22.7-22.7
							c12.5,0,22.7,10.1,22.7,22.7c0,3.8-0.9,7.3-2.6,10.4c1.8-1.5,7-5.5,13-6.8c-0.2-1.2-0.3-2.4-0.3-3.6
							c0-12.5,10.2-22.7,22.7-22.7C100.2,10.2,110.4,20.4,110.4,32.9"/>
					</g>
					<path id="Fill-44" class="st0" d="M19.2,69.2l-4.7,3l0.3,0.7l2.4-0.8v9.9H20V69.2H19.2z M25.5,78.8c0.1,0.7,0.3,1.8,1.2,2.6
						c1,1,2.3,1.1,3.1,1.1c4.2,0,5.6-3.8,5.6-7.2c0-2.8-1-4.3-1.8-5.1c-1.2-1.2-2.7-1.3-3.5-1.3c-3.6,0-4.9,2.6-4.9,4.6
						c0,2.6,2,4.3,4.4,4.3c1,0,2-0.4,2.6-1c0.2-0.2,0.4-0.4,0.5-0.6c-0.2,2-0.5,3-1.3,3.8c-0.6,0.5-1.3,0.8-2.1,0.8
						c-0.9,0-1.7-0.4-2.2-0.8c-0.4-0.4-0.6-0.9-0.8-1.3L25.5,78.8z M30.2,75.9c-0.5,0-1.1-0.2-1.5-0.6C28,74.7,28,73.6,28,73.3
						c0-2,1.2-2.7,2.2-2.7c1.1,0,2.1,0.8,2.1,2.7c0,0.6-0.1,1.4-0.7,2C31.3,75.7,30.8,75.9,30.2,75.9L30.2,75.9z M45,78.5
						c2.3-2.4,2.7-2.8,3.2-4c0.2-0.4,0.3-1,0.3-1.6c0-2-1.6-3.9-4.6-3.9c-1.7,0-3.3,0.6-4.1,2.2c-0.3,0.6-0.4,1.1-0.5,1.6l0.8,0.2
						c0.4-0.7,1.3-2.3,3.2-2.3c1.3,0,2.5,0.8,2.5,2.3c0,1.5-1,2.6-2.2,3.9l-4.2,4.5v0.8h9.9v-1.9h-5.8L45,78.5z M58.3,68.9
						c-1.5,0-2.8,0.5-3.6,1.3c-1.5,1.4-1.9,3.6-1.9,5.6c0,3.8,1.8,6.6,5.4,6.6c3.8,0,5.6-3,5.6-6.8C63.7,71.8,61.9,68.9,58.3,68.9
						L58.3,68.9z M58.3,70.6c1.1,0,1.6,0.8,1.9,1.3c0.5,1.1,0.6,2.6,0.6,3.8c0,3-0.7,5-2.6,5c-1.2,0-1.6-0.8-1.8-1.2
						c-0.6-1.1-0.7-2.9-0.7-3.9c0-2.2,0.5-3.8,1.1-4.5C57.1,70.9,57.6,70.6,58.3,70.6L58.3,70.6z M84.7,78.5c2.3-2.4,2.7-2.8,3.2-4
						c0.2-0.4,0.3-1,0.3-1.6c0-2-1.6-3.9-4.6-3.9c-1.7,0-3.3,0.6-4.1,2.2c-0.3,0.6-0.4,1.1-0.5,1.6l0.8,0.2c0.4-0.7,1.3-2.3,3.2-2.3
						c1.3,0,2.5,0.8,2.5,2.3c0,1.5-1,2.6-2.2,3.9l-4.2,4.5v0.8h9.9v-1.9H83L84.7,78.5z M97.5,68.9c-1.5,0-2.8,0.5-3.6,1.3
						c-1.5,1.4-1.9,3.6-1.9,5.6c0,3.8,1.8,6.6,5.4,6.6c3.8,0,5.6-3,5.6-6.8C102.9,71.8,101.1,68.9,97.5,68.9L97.5,68.9z M97.5,70.6
						c1.1,0,1.6,0.8,1.9,1.3c0.5,1.1,0.6,2.6,0.6,3.8c0,3-0.7,5-2.6,5c-1.2,0-1.6-0.8-1.8-1.2c-0.6-1.1-0.7-2.9-0.7-3.9
						c0-2.2,0.5-3.8,1.1-4.5C96.3,70.9,96.8,70.6,97.5,70.6L97.5,70.6z M111.8,78.5c2.3-2.4,2.7-2.8,3.2-4c0.2-0.4,0.3-1,0.3-1.6
						c0-2-1.6-3.9-4.6-3.9c-1.7,0-3.3,0.6-4.1,2.2c-0.3,0.6-0.4,1.1-0.5,1.6l0.8,0.2c0.4-0.7,1.3-2.3,3.2-2.3c1.3,0,2.5,0.8,2.5,2.3
						c0,1.5-1,2.6-2.2,3.9l-4.2,4.5v0.8h9.9v-1.9h-5.8L111.8,78.5z M124.6,68.9c-1.5,0-2.8,0.5-3.6,1.3c-1.5,1.4-1.9,3.6-1.9,5.6
						c0,3.8,1.8,6.6,5.4,6.6c3.8,0,5.6-3,5.6-6.8C130,71.8,128.2,68.9,124.6,68.9L124.6,68.9z M124.6,70.6c1.1,0,1.6,0.8,1.9,1.3
						c0.5,1.1,0.6,2.6,0.6,3.8c0,3-0.7,5-2.6,5c-1.2,0-1.6-0.8-1.8-1.2c-0.6-1.1-0.7-2.9-0.7-3.9c0-2.2,0.5-3.8,1.1-4.5
						C123.4,70.9,123.9,70.6,124.6,70.6L124.6,70.6z"/>
					<path id="Fill-45" class="st0" d="M68.8,75.3c0,0-0.1,0-0.1,0.1c-1.2,0.6-1.6,1.5-1.6,1.6c0,0,0,0,0,0l0,0c0,0,0,0,0,0l0,0l0,0
						c0,0,0,0,0,0c0,0,1.3-1,3.1-1c0.9,0,1.6,0.3,2.2,0.6c0.4,0.2,1.1,0.4,1.9,0.3c0,0,0,0,0,0c0.1,0,0.1,0,0.2,0
						c0.5-0.1,1.2-0.3,1.5-1.2c0,0,0,0,0,0l0,0l0,0c-1.2,0.8-3.1,0.1-3.8-0.2l0,0c-0.1,0-0.3-0.1-0.4-0.2c-0.6-0.2-1.1-0.3-1.5-0.3
						C69.6,75.1,69.1,75.2,68.8,75.3"/>
					<polygon id="Fill-46" class="st0" points="67.1,77 76,77 76,75.1 67.1,75.1 					"/>
					<g id="Group-50" transform="translate(0.000000, 2.400000)">
						<defs>
							<filter id="Adobe_OpacityMaskFilter_2_" filterUnits="userSpaceOnUse" x="-0.1" y="0.8" width="20.2" height="59.6">
								<feColorMatrix  type="matrix" values="1 0 0 0 0  0 1 0 0 0  0 0 1 0 0  0 0 0 1 0"/>
							</filter>
						</defs>
						<mask maskUnits="userSpaceOnUse" x="-0.1" y="0.8" width="20.2" height="59.6" id="mask-4_1_">
							<g class="st5">
								<polygon id="path-3_1_" class="st0" points="-0.1,60.4 -0.1,0.8 20.1,0.8 20.1,60.4 								"/>
							</g>
						</mask>
						<path id="Fill-48" class="st6" d="M8.1,0.8L8.1,0.8C6,0.8,3.2,1.4-0.1,4.6c0,0,7.5-2.1,7.5,12.1l0,0c0,12.3,0,33.3,0,33.3
							c0,7.4,3.6,10.5,9.2,10.5c1.3,0,2.5-0.3,3.5-0.9c-1.5-1.4-2.5-3.8-2.5-6.6c0-4.4,0-41.4,0-41.4c0-4.5-1.3-7.4-3.7-9l0,0
							c0,0-0.1,0-0.1-0.1c-0.1-0.1-0.2-0.1-0.3-0.2c-2.2-1.4-4.4-1.5-5.2-1.5C8.2,0.8,8.1,0.8,8.1,0.8"/>
					</g>
				</g>
			</g>
		</g>
	</g>
</g>
</svg>
